<mxfile host="app.diagrams.net" modified="2020-09-21T16:19:41.527Z" agent="5.0 (Windows NT 10.0; Win64; x64) AppleWebKit/537.36 (KHTML, like Gecko) Chrome/85.0.4183.102 Safari/537.36" etag="iW1RP7smvpV84N5ESWPv" version="13.7.1" type="github">
  <diagram id="VlWhj4o1egnzfauIGW_b" name="Page-1">
    <mxGraphModel dx="3252" dy="2152" grid="1" gridSize="10" guides="1" tooltips="1" connect="1" arrows="1" fold="1" page="1" pageScale="1" pageWidth="827" pageHeight="1169" math="0" shadow="0">
      <root>
        <mxCell id="0" />
        <mxCell id="1" parent="0" />
        <mxCell id="PT7qIWkluFGOAPOJjwUe-12" value="pc[31...0]" style="edgeStyle=orthogonalEdgeStyle;rounded=0;orthogonalLoop=1;jettySize=auto;html=1;entryX=0.5;entryY=0;entryDx=0;entryDy=0;fillColor=#f5f5f5;strokeColor=#666666;" parent="1" source="PT7qIWkluFGOAPOJjwUe-1" target="PT7qIWkluFGOAPOJjwUe-3" edge="1">
          <mxGeometry relative="1" as="geometry" />
        </mxCell>
        <mxCell id="oCvcuVsPTy9-PeTr9Gm9-26" style="edgeStyle=none;rounded=0;orthogonalLoop=1;jettySize=auto;html=1;exitX=0.5;exitY=1;exitDx=0;exitDy=0;entryX=0.5;entryY=1;entryDx=0;entryDy=0;strokeColor=#666666;fontColor=#007FFF;fillColor=#f5f5f5;" edge="1" parent="1" source="PT7qIWkluFGOAPOJjwUe-1" target="PT7qIWkluFGOAPOJjwUe-116">
          <mxGeometry relative="1" as="geometry">
            <Array as="points">
              <mxPoint x="10" y="110" />
              <mxPoint x="220" y="110" />
              <mxPoint x="220" y="250" />
              <mxPoint x="400" y="250" />
            </Array>
          </mxGeometry>
        </mxCell>
        <mxCell id="PT7qIWkluFGOAPOJjwUe-1" value="&lt;b&gt;&lt;font style=&quot;font-size: 13px&quot;&gt;PC&lt;/font&gt;&lt;/b&gt;" style="rounded=1;whiteSpace=wrap;html=1;fillColor=#ffe6cc;strokeColor=#d79b00;" parent="1" vertex="1">
          <mxGeometry x="-15" y="27.5" width="50" height="50" as="geometry" />
        </mxCell>
        <mxCell id="PT7qIWkluFGOAPOJjwUe-239" value="inst[31...0]" style="edgeStyle=none;rounded=0;orthogonalLoop=1;jettySize=auto;html=1;exitX=1;exitY=0.5;exitDx=0;exitDy=0;entryX=0;entryY=0.5;entryDx=0;entryDy=0;fontColor=#000000;" parent="1" source="PT7qIWkluFGOAPOJjwUe-3" target="PT7qIWkluFGOAPOJjwUe-27" edge="1">
          <mxGeometry relative="1" as="geometry" />
        </mxCell>
        <mxCell id="PT7qIWkluFGOAPOJjwUe-3" value="&lt;b style=&quot;font-size: 13px&quot;&gt;Instruction&lt;br&gt;memory&lt;/b&gt;" style="rounded=1;whiteSpace=wrap;html=1;fillColor=#d5e8d4;strokeColor=#82b366;" parent="1" vertex="1">
          <mxGeometry x="-50" y="355" width="120" height="60" as="geometry" />
        </mxCell>
        <mxCell id="PT7qIWkluFGOAPOJjwUe-119" style="edgeStyle=orthogonalEdgeStyle;rounded=0;orthogonalLoop=1;jettySize=auto;html=1;exitX=1;exitY=0.75;exitDx=0;exitDy=0;entryX=0.75;entryY=1;entryDx=0;entryDy=0;fontColor=#007FFF;fillColor=#e1d5e7;strokeColor=#9673a6;" parent="1" source="PT7qIWkluFGOAPOJjwUe-4" target="PT7qIWkluFGOAPOJjwUe-117" edge="1">
          <mxGeometry relative="1" as="geometry" />
        </mxCell>
        <mxCell id="PT7qIWkluFGOAPOJjwUe-215" style="edgeStyle=none;rounded=0;orthogonalLoop=1;jettySize=auto;html=1;exitX=1;exitY=0.75;exitDx=0;exitDy=0;entryX=0.167;entryY=0.537;entryDx=0;entryDy=0;entryPerimeter=0;strokeColor=#9673a6;fontColor=#000000;fillColor=#e1d5e7;" parent="1" source="PT7qIWkluFGOAPOJjwUe-4" target="PT7qIWkluFGOAPOJjwUe-28" edge="1">
          <mxGeometry relative="1" as="geometry" />
        </mxCell>
        <mxCell id="PT7qIWkluFGOAPOJjwUe-216" style="edgeStyle=none;rounded=0;orthogonalLoop=1;jettySize=auto;html=1;exitX=1;exitY=0.25;exitDx=0;exitDy=0;entryX=0.167;entryY=0.312;entryDx=0;entryDy=0;entryPerimeter=0;strokeColor=#9673a6;fontColor=#000000;fillColor=#e1d5e7;" parent="1" source="PT7qIWkluFGOAPOJjwUe-4" target="PT7qIWkluFGOAPOJjwUe-28" edge="1">
          <mxGeometry relative="1" as="geometry" />
        </mxCell>
        <mxCell id="PT7qIWkluFGOAPOJjwUe-218" style="edgeStyle=none;rounded=0;orthogonalLoop=1;jettySize=auto;html=1;exitX=1;exitY=0.25;exitDx=0;exitDy=0;entryX=0.25;entryY=1;entryDx=0;entryDy=0;strokeColor=#9673a6;fontColor=#000000;fillColor=#e1d5e7;" parent="1" source="PT7qIWkluFGOAPOJjwUe-4" target="PT7qIWkluFGOAPOJjwUe-117" edge="1">
          <mxGeometry relative="1" as="geometry">
            <Array as="points">
              <mxPoint x="562" y="304" />
            </Array>
          </mxGeometry>
        </mxCell>
        <mxCell id="PT7qIWkluFGOAPOJjwUe-219" value="reg1[31...0]" style="edgeStyle=none;rounded=0;orthogonalLoop=1;jettySize=auto;html=1;exitX=1;exitY=0.25;exitDx=0;exitDy=0;entryX=1;entryY=0.75;entryDx=0;entryDy=0;fillColor=#60a917;strokeColor=#2D7600;fontColor=#005700;" parent="1" source="PT7qIWkluFGOAPOJjwUe-4" target="PT7qIWkluFGOAPOJjwUe-116" edge="1">
          <mxGeometry relative="1" as="geometry">
            <Array as="points">
              <mxPoint x="560" y="304" />
              <mxPoint x="560" y="240" />
              <mxPoint x="490" y="240" />
              <mxPoint x="490" y="205" />
            </Array>
          </mxGeometry>
        </mxCell>
        <mxCell id="PT7qIWkluFGOAPOJjwUe-4" value="&lt;b&gt;&lt;font style=&quot;font-size: 13px&quot;&gt;Register file&lt;/font&gt;&lt;/b&gt;" style="whiteSpace=wrap;html=1;aspect=fixed;fillColor=#d5e8d4;strokeColor=#82b366;" parent="1" vertex="1">
          <mxGeometry x="359" y="259" width="180" height="180" as="geometry" />
        </mxCell>
        <mxCell id="PT7qIWkluFGOAPOJjwUe-5" value="reg_addr1" style="text;html=1;strokeColor=none;fillColor=none;align=center;verticalAlign=middle;whiteSpace=wrap;rounded=0;" parent="1" vertex="1">
          <mxGeometry x="369" y="292" width="40" height="20" as="geometry" />
        </mxCell>
        <mxCell id="PT7qIWkluFGOAPOJjwUe-6" value="reg_addr2" style="text;html=1;strokeColor=none;fillColor=none;align=center;verticalAlign=middle;whiteSpace=wrap;rounded=0;" parent="1" vertex="1">
          <mxGeometry x="369" y="381" width="40" height="20" as="geometry" />
        </mxCell>
        <mxCell id="PT7qIWkluFGOAPOJjwUe-7" value="reg_data1" style="text;html=1;strokeColor=none;fillColor=none;align=center;verticalAlign=middle;whiteSpace=wrap;rounded=0;" parent="1" vertex="1">
          <mxGeometry x="489" y="289" width="40" height="20" as="geometry" />
        </mxCell>
        <mxCell id="PT7qIWkluFGOAPOJjwUe-8" value="reg_data2" style="text;html=1;strokeColor=none;fillColor=none;align=center;verticalAlign=middle;whiteSpace=wrap;rounded=0;" parent="1" vertex="1">
          <mxGeometry x="489" y="381" width="40" height="20" as="geometry" />
        </mxCell>
        <mxCell id="PT7qIWkluFGOAPOJjwUe-9" value="reg_write_addr" style="text;html=1;strokeColor=none;fillColor=none;align=center;verticalAlign=middle;whiteSpace=wrap;rounded=0;" parent="1" vertex="1">
          <mxGeometry x="382" y="418" width="40" height="20" as="geometry" />
        </mxCell>
        <mxCell id="PT7qIWkluFGOAPOJjwUe-11" value="reg_write_data" style="text;html=1;strokeColor=none;fillColor=none;align=center;verticalAlign=middle;whiteSpace=wrap;rounded=0;" parent="1" vertex="1">
          <mxGeometry x="479" y="418" width="40" height="20" as="geometry" />
        </mxCell>
        <mxCell id="PT7qIWkluFGOAPOJjwUe-246" style="edgeStyle=none;rounded=0;orthogonalLoop=1;jettySize=auto;html=1;exitX=0.75;exitY=0;exitDx=0;exitDy=0;entryX=0;entryY=0.5;entryDx=0;entryDy=0;strokeColor=#6c8ebf;fontColor=#005700;fillColor=#dae8fc;" parent="1" source="PT7qIWkluFGOAPOJjwUe-13" target="PT7qIWkluFGOAPOJjwUe-25" edge="1">
          <mxGeometry relative="1" as="geometry">
            <Array as="points">
              <mxPoint x="478" y="-80" />
            </Array>
          </mxGeometry>
        </mxCell>
        <mxCell id="PT7qIWkluFGOAPOJjwUe-13" value="&lt;b&gt;&lt;font style=&quot;font-size: 13px&quot;&gt;Control&lt;/font&gt;&lt;/b&gt;" style="rounded=0;whiteSpace=wrap;html=1;fillColor=#ffe6cc;strokeColor=#d79b00;" parent="1" vertex="1">
          <mxGeometry x="373" y="-10.5" width="140" height="60" as="geometry" />
        </mxCell>
        <mxCell id="PT7qIWkluFGOAPOJjwUe-14" value="opcode" style="text;html=1;strokeColor=none;fillColor=none;align=center;verticalAlign=middle;whiteSpace=wrap;rounded=0;" parent="1" vertex="1">
          <mxGeometry x="373" y="-12.5" width="40" height="20" as="geometry" />
        </mxCell>
        <mxCell id="PT7qIWkluFGOAPOJjwUe-15" value="function" style="text;html=1;strokeColor=none;fillColor=none;align=center;verticalAlign=middle;whiteSpace=wrap;rounded=0;" parent="1" vertex="1">
          <mxGeometry x="373" y="27.5" width="40" height="20" as="geometry" />
        </mxCell>
        <mxCell id="oCvcuVsPTy9-PeTr9Gm9-4" style="edgeStyle=none;rounded=0;orthogonalLoop=1;jettySize=auto;html=1;exitX=0;exitY=0.25;exitDx=0;exitDy=0;entryX=0;entryY=0.5;entryDx=0;entryDy=0;fontColor=#007FFF;strokeColor=#FF8000;" edge="1" parent="1" source="PT7qIWkluFGOAPOJjwUe-18" target="PT7qIWkluFGOAPOJjwUe-31">
          <mxGeometry relative="1" as="geometry">
            <Array as="points">
              <mxPoint x="810" y="-35" />
            </Array>
          </mxGeometry>
        </mxCell>
        <mxCell id="oCvcuVsPTy9-PeTr9Gm9-5" style="edgeStyle=none;rounded=0;orthogonalLoop=1;jettySize=auto;html=1;exitX=0;exitY=0.75;exitDx=0;exitDy=0;entryX=0;entryY=0.5;entryDx=0;entryDy=0;strokeColor=#FF8000;fontColor=#007FFF;" edge="1" parent="1" source="PT7qIWkluFGOAPOJjwUe-18" target="PT7qIWkluFGOAPOJjwUe-65">
          <mxGeometry relative="1" as="geometry">
            <Array as="points">
              <mxPoint x="860" y="10" />
              <mxPoint x="860" y="170" />
              <mxPoint x="860" y="270" />
              <mxPoint x="850" y="298" />
              <mxPoint x="810" y="270" />
            </Array>
          </mxGeometry>
        </mxCell>
        <mxCell id="PT7qIWkluFGOAPOJjwUe-18" value="&lt;font style=&quot;font-size: 13px&quot;&gt;&lt;b&gt;Forwarding&lt;br&gt;Unit&lt;/b&gt;&lt;/font&gt;" style="rounded=1;whiteSpace=wrap;html=1;fillColor=#ffe6cc;strokeColor=#d79b00;" parent="1" vertex="1">
          <mxGeometry x="977" y="-57.5" width="123" height="90" as="geometry" />
        </mxCell>
        <mxCell id="PT7qIWkluFGOAPOJjwUe-222" style="edgeStyle=none;rounded=0;orthogonalLoop=1;jettySize=auto;html=1;exitX=1;exitY=0.5;exitDx=0;exitDy=0;entryX=-0.022;entryY=0.224;entryDx=0;entryDy=0;entryPerimeter=0;strokeColor=#9673a6;fontColor=#000000;fillColor=#e1d5e7;" parent="1" source="PT7qIWkluFGOAPOJjwUe-19" target="PT7qIWkluFGOAPOJjwUe-29" edge="1">
          <mxGeometry relative="1" as="geometry" />
        </mxCell>
        <mxCell id="PT7qIWkluFGOAPOJjwUe-19" value="&lt;b&gt;&lt;font style=&quot;font-size: 13px&quot;&gt;ALU&lt;/font&gt;&lt;/b&gt;" style="whiteSpace=wrap;html=1;aspect=fixed;fillColor=#ffe6cc;strokeColor=#d79b00;" parent="1" vertex="1">
          <mxGeometry x="977" y="194.5" width="150" height="150" as="geometry" />
        </mxCell>
        <mxCell id="PT7qIWkluFGOAPOJjwUe-266" style="edgeStyle=none;rounded=0;orthogonalLoop=1;jettySize=auto;html=1;exitX=1;exitY=0.25;exitDx=0;exitDy=0;entryX=0.033;entryY=0.316;entryDx=0;entryDy=0;entryPerimeter=0;strokeColor=#9673a6;fontColor=#005700;fillColor=#e1d5e7;" parent="1" source="PT7qIWkluFGOAPOJjwUe-20" target="PT7qIWkluFGOAPOJjwUe-70" edge="1">
          <mxGeometry relative="1" as="geometry" />
        </mxCell>
        <mxCell id="PT7qIWkluFGOAPOJjwUe-20" value="&lt;b&gt;&lt;font style=&quot;font-size: 13px&quot;&gt;Data memory&lt;/font&gt;&lt;/b&gt;" style="whiteSpace=wrap;html=1;aspect=fixed;fillColor=#d5e8d4;strokeColor=#82b366;" parent="1" vertex="1">
          <mxGeometry x="1360" y="272.5" width="140" height="140" as="geometry" />
        </mxCell>
        <mxCell id="PT7qIWkluFGOAPOJjwUe-21" value="mem_addr" style="text;html=1;strokeColor=none;fillColor=none;align=center;verticalAlign=middle;whiteSpace=wrap;rounded=0;" parent="1" vertex="1">
          <mxGeometry x="1370" y="312.5" width="40" height="20" as="geometry" />
        </mxCell>
        <mxCell id="PT7qIWkluFGOAPOJjwUe-22" value="mem_write_data" style="text;html=1;strokeColor=none;fillColor=none;align=center;verticalAlign=middle;whiteSpace=wrap;rounded=0;" parent="1" vertex="1">
          <mxGeometry x="1386" y="367.5" width="40" height="20" as="geometry" />
        </mxCell>
        <mxCell id="PT7qIWkluFGOAPOJjwUe-23" value="mem_read_data" style="text;html=1;strokeColor=none;fillColor=none;align=center;verticalAlign=middle;whiteSpace=wrap;rounded=0;" parent="1" vertex="1">
          <mxGeometry x="1438" y="295.5" width="40" height="20" as="geometry" />
        </mxCell>
        <mxCell id="PT7qIWkluFGOAPOJjwUe-25" value="&lt;font color=&quot;#007fff&quot;&gt;RegWrite&lt;br&gt;MemWrite&lt;br&gt;CB&lt;br&gt;RegWriteAddr&lt;br&gt;RegWriteData&lt;br&gt;ALUOp&lt;br&gt;Num1&lt;br&gt;Num2&lt;br&gt;&lt;/font&gt;" style="rounded=1;whiteSpace=wrap;html=1;fillColor=#dae8fc;strokeColor=#6c8ebf;" parent="1" vertex="1">
          <mxGeometry x="652" y="-160" width="92" height="160" as="geometry" />
        </mxCell>
        <mxCell id="PT7qIWkluFGOAPOJjwUe-114" style="edgeStyle=orthogonalEdgeStyle;rounded=0;orthogonalLoop=1;jettySize=auto;html=1;exitX=1;exitY=0.5;exitDx=0;exitDy=0;entryX=0;entryY=0.25;entryDx=0;entryDy=0;fontColor=#007FFF;" parent="1" source="PT7qIWkluFGOAPOJjwUe-27" target="PT7qIWkluFGOAPOJjwUe-14" edge="1">
          <mxGeometry relative="1" as="geometry">
            <Array as="points">
              <mxPoint x="270" y="385" />
              <mxPoint x="270" y="-7" />
            </Array>
          </mxGeometry>
        </mxCell>
        <mxCell id="PT7qIWkluFGOAPOJjwUe-115" style="edgeStyle=orthogonalEdgeStyle;rounded=0;orthogonalLoop=1;jettySize=auto;html=1;exitX=1;exitY=0.5;exitDx=0;exitDy=0;entryX=0;entryY=0.25;entryDx=0;entryDy=0;fontColor=#007FFF;" parent="1" source="PT7qIWkluFGOAPOJjwUe-27" target="PT7qIWkluFGOAPOJjwUe-15" edge="1">
          <mxGeometry relative="1" as="geometry">
            <Array as="points">
              <mxPoint x="270" y="385" />
              <mxPoint x="270" y="33" />
            </Array>
          </mxGeometry>
        </mxCell>
        <mxCell id="PT7qIWkluFGOAPOJjwUe-123" style="edgeStyle=orthogonalEdgeStyle;rounded=0;orthogonalLoop=1;jettySize=auto;html=1;exitX=1;exitY=0.5;exitDx=0;exitDy=0;entryX=0;entryY=0.25;entryDx=0;entryDy=0;fontColor=#007FFF;fillColor=#e1d5e7;strokeColor=#9673a6;" parent="1" source="PT7qIWkluFGOAPOJjwUe-27" target="PT7qIWkluFGOAPOJjwUe-116" edge="1">
          <mxGeometry relative="1" as="geometry">
            <Array as="points">
              <mxPoint x="270" y="385" />
              <mxPoint x="270" y="175" />
            </Array>
          </mxGeometry>
        </mxCell>
        <mxCell id="PT7qIWkluFGOAPOJjwUe-124" style="edgeStyle=orthogonalEdgeStyle;rounded=0;orthogonalLoop=1;jettySize=auto;html=1;exitX=1;exitY=0.5;exitDx=0;exitDy=0;entryX=0;entryY=0.75;entryDx=0;entryDy=0;fontColor=#007FFF;fillColor=#e1d5e7;strokeColor=#9673a6;" parent="1" source="PT7qIWkluFGOAPOJjwUe-27" target="PT7qIWkluFGOAPOJjwUe-116" edge="1">
          <mxGeometry relative="1" as="geometry">
            <Array as="points">
              <mxPoint x="270" y="385" />
              <mxPoint x="270" y="205" />
            </Array>
          </mxGeometry>
        </mxCell>
        <mxCell id="PT7qIWkluFGOAPOJjwUe-186" style="edgeStyle=orthogonalEdgeStyle;rounded=0;orthogonalLoop=1;jettySize=auto;html=1;exitX=1;exitY=0.5;exitDx=0;exitDy=0;entryX=0;entryY=1;entryDx=0;entryDy=0;strokeColor=#666666;fontColor=#005700;fillColor=#f5f5f5;" parent="1" source="PT7qIWkluFGOAPOJjwUe-27" target="PT7qIWkluFGOAPOJjwUe-28" edge="1">
          <mxGeometry relative="1" as="geometry">
            <Array as="points">
              <mxPoint x="270" y="385" />
              <mxPoint x="270" y="580" />
            </Array>
          </mxGeometry>
        </mxCell>
        <mxCell id="PT7qIWkluFGOAPOJjwUe-208" style="edgeStyle=none;rounded=0;orthogonalLoop=1;jettySize=auto;html=1;exitX=1;exitY=0.5;exitDx=0;exitDy=0;entryX=-0.093;entryY=0.877;entryDx=0;entryDy=0;strokeColor=#666666;fontColor=#000000;fillColor=#f5f5f5;entryPerimeter=0;" parent="1" source="PT7qIWkluFGOAPOJjwUe-27" target="PT7qIWkluFGOAPOJjwUe-28" edge="1">
          <mxGeometry relative="1" as="geometry">
            <Array as="points">
              <mxPoint x="270" y="385" />
              <mxPoint x="270" y="531" />
            </Array>
          </mxGeometry>
        </mxCell>
        <mxCell id="PT7qIWkluFGOAPOJjwUe-224" style="edgeStyle=none;rounded=0;orthogonalLoop=1;jettySize=auto;html=1;exitX=1;exitY=0.5;exitDx=0;exitDy=0;entryX=0.019;entryY=0.938;entryDx=0;entryDy=0;entryPerimeter=0;strokeColor=#666666;fontColor=#000000;fillColor=#f5f5f5;" parent="1" source="PT7qIWkluFGOAPOJjwUe-27" target="PT7qIWkluFGOAPOJjwUe-28" edge="1">
          <mxGeometry relative="1" as="geometry">
            <Array as="points">
              <mxPoint x="270" y="385" />
              <mxPoint x="270" y="555" />
            </Array>
          </mxGeometry>
        </mxCell>
        <mxCell id="PT7qIWkluFGOAPOJjwUe-247" style="edgeStyle=none;rounded=0;orthogonalLoop=1;jettySize=auto;html=1;exitX=1;exitY=0.5;exitDx=0;exitDy=0;entryX=0;entryY=0.25;entryDx=0;entryDy=0;strokeColor=#666666;fontColor=#005700;fillColor=#f5f5f5;" parent="1" source="PT7qIWkluFGOAPOJjwUe-27" target="PT7qIWkluFGOAPOJjwUe-4" edge="1">
          <mxGeometry relative="1" as="geometry">
            <Array as="points">
              <mxPoint x="270" y="385" />
              <mxPoint x="270" y="304" />
            </Array>
          </mxGeometry>
        </mxCell>
        <mxCell id="PT7qIWkluFGOAPOJjwUe-248" style="edgeStyle=none;rounded=0;orthogonalLoop=1;jettySize=auto;html=1;exitX=1;exitY=0.5;exitDx=0;exitDy=0;strokeColor=#666666;fontColor=#005700;fillColor=#f5f5f5;" parent="1" source="PT7qIWkluFGOAPOJjwUe-27" edge="1">
          <mxGeometry relative="1" as="geometry">
            <mxPoint x="360" y="385" as="targetPoint" />
            <Array as="points">
              <mxPoint x="280" y="385" />
            </Array>
          </mxGeometry>
        </mxCell>
        <mxCell id="oCvcuVsPTy9-PeTr9Gm9-14" style="edgeStyle=none;rounded=0;orthogonalLoop=1;jettySize=auto;html=1;exitX=1;exitY=0.5;exitDx=0;exitDy=0;entryX=0;entryY=0.75;entryDx=0;entryDy=0;strokeColor=#9673a6;fontColor=#007FFF;fillColor=#e1d5e7;" edge="1" parent="1" source="PT7qIWkluFGOAPOJjwUe-27" target="PT7qIWkluFGOAPOJjwUe-30">
          <mxGeometry relative="1" as="geometry">
            <Array as="points">
              <mxPoint x="270" y="385" />
              <mxPoint x="270" y="508" />
            </Array>
          </mxGeometry>
        </mxCell>
        <mxCell id="PT7qIWkluFGOAPOJjwUe-27" value="I&lt;br&gt;n&lt;br&gt;s&lt;br&gt;t&lt;br&gt;r&lt;br&gt;u&lt;br&gt;c&lt;br&gt;t&lt;br&gt;i&lt;br&gt;o&lt;br&gt;n&lt;br&gt;&lt;br&gt;D&lt;br&gt;e&lt;br&gt;c&lt;br&gt;o&lt;br&gt;d&lt;br&gt;e&lt;br&gt;r" style="rounded=0;whiteSpace=wrap;html=1;fillColor=#f5f5f5;strokeColor=#666666;fontColor=#333333;" parent="1" vertex="1">
          <mxGeometry x="160" y="185" width="30" height="400" as="geometry" />
        </mxCell>
        <mxCell id="PT7qIWkluFGOAPOJjwUe-28" value="E&lt;br&gt;x&lt;br&gt;e&lt;br&gt;c&lt;br&gt;u&lt;br&gt;t&lt;br&gt;e" style="rounded=0;whiteSpace=wrap;html=1;fillColor=#f5f5f5;strokeColor=#666666;fontColor=#333333;" parent="1" vertex="1">
          <mxGeometry x="695" y="180" width="30" height="400" as="geometry" />
        </mxCell>
        <mxCell id="PT7qIWkluFGOAPOJjwUe-99" style="edgeStyle=orthogonalEdgeStyle;rounded=0;orthogonalLoop=1;jettySize=auto;html=1;exitX=1;exitY=0.25;exitDx=0;exitDy=0;entryX=-0.015;entryY=0.355;entryDx=0;entryDy=0;entryPerimeter=0;fontColor=#007FFF;fillColor=#f5f5f5;strokeColor=#666666;" parent="1" source="PT7qIWkluFGOAPOJjwUe-29" target="PT7qIWkluFGOAPOJjwUe-20" edge="1">
          <mxGeometry relative="1" as="geometry">
            <Array as="points">
              <mxPoint x="1300" y="280" />
              <mxPoint x="1300" y="322" />
            </Array>
          </mxGeometry>
        </mxCell>
        <mxCell id="PT7qIWkluFGOAPOJjwUe-100" style="edgeStyle=orthogonalEdgeStyle;rounded=0;orthogonalLoop=1;jettySize=auto;html=1;exitX=1.003;exitY=0.548;exitDx=0;exitDy=0;entryX=0;entryY=0.75;entryDx=0;entryDy=0;fontColor=#007FFF;fillColor=#e1d5e7;strokeColor=#9673a6;exitPerimeter=0;" parent="1" source="PT7qIWkluFGOAPOJjwUe-29" target="PT7qIWkluFGOAPOJjwUe-20" edge="1">
          <mxGeometry relative="1" as="geometry" />
        </mxCell>
        <mxCell id="PT7qIWkluFGOAPOJjwUe-255" style="edgeStyle=none;rounded=0;orthogonalLoop=1;jettySize=auto;html=1;exitX=1;exitY=0.25;exitDx=0;exitDy=0;entryX=1;entryY=0.75;entryDx=0;entryDy=0;strokeColor=#9673a6;fontColor=#005700;fillColor=#e1d5e7;" parent="1" source="PT7qIWkluFGOAPOJjwUe-29" target="PT7qIWkluFGOAPOJjwUe-18" edge="1">
          <mxGeometry relative="1" as="geometry">
            <Array as="points">
              <mxPoint x="1300" y="280" />
              <mxPoint x="1300" y="10" />
            </Array>
          </mxGeometry>
        </mxCell>
        <mxCell id="PT7qIWkluFGOAPOJjwUe-271" value="&lt;font color=&quot;#a680b8&quot;&gt;mem_reg_data&lt;/font&gt;" style="edgeLabel;html=1;align=center;verticalAlign=middle;resizable=0;points=[];fontColor=#005700;" parent="PT7qIWkluFGOAPOJjwUe-255" vertex="1" connectable="0">
          <mxGeometry x="0.7204" y="-1" relative="1" as="geometry">
            <mxPoint as="offset" />
          </mxGeometry>
        </mxCell>
        <mxCell id="PT7qIWkluFGOAPOJjwUe-268" style="edgeStyle=none;rounded=0;orthogonalLoop=1;jettySize=auto;html=1;exitX=1;exitY=0.25;exitDx=0;exitDy=0;entryX=-0.005;entryY=0.159;entryDx=0;entryDy=0;entryPerimeter=0;strokeColor=#9673a6;fontColor=#005700;fillColor=#e1d5e7;" parent="1" source="PT7qIWkluFGOAPOJjwUe-29" target="PT7qIWkluFGOAPOJjwUe-70" edge="1">
          <mxGeometry relative="1" as="geometry">
            <Array as="points">
              <mxPoint x="1300" y="280" />
              <mxPoint x="1300" y="244" />
            </Array>
          </mxGeometry>
        </mxCell>
        <mxCell id="PT7qIWkluFGOAPOJjwUe-274" style="edgeStyle=none;rounded=0;orthogonalLoop=1;jettySize=auto;html=1;exitX=1;exitY=1;exitDx=0;exitDy=0;strokeColor=#666666;fontColor=#005700;entryX=1;entryY=0.25;entryDx=0;entryDy=0;fillColor=#f5f5f5;" parent="1" source="PT7qIWkluFGOAPOJjwUe-29" target="PT7qIWkluFGOAPOJjwUe-18" edge="1">
          <mxGeometry relative="1" as="geometry">
            <mxPoint x="1530" y="-60" as="targetPoint" />
            <Array as="points">
              <mxPoint x="1540" y="580" />
              <mxPoint x="1540" y="-35" />
            </Array>
          </mxGeometry>
        </mxCell>
        <mxCell id="PT7qIWkluFGOAPOJjwUe-277" value="&lt;font color=&quot;#808080&quot;&gt;mem_reg_dst&lt;/font&gt;" style="edgeLabel;html=1;align=center;verticalAlign=middle;resizable=0;points=[];fontColor=#005700;" parent="PT7qIWkluFGOAPOJjwUe-274" vertex="1" connectable="0">
          <mxGeometry x="0.9145" y="-3" relative="1" as="geometry">
            <mxPoint as="offset" />
          </mxGeometry>
        </mxCell>
        <mxCell id="PT7qIWkluFGOAPOJjwUe-29" value="M&lt;br&gt;e&lt;br&gt;m&lt;br&gt;o&lt;br&gt;r&lt;br&gt;y&lt;br&gt;&lt;br&gt;A&lt;br&gt;c&lt;br&gt;c&lt;br&gt;e&lt;br&gt;s&lt;br&gt;s" style="rounded=0;whiteSpace=wrap;html=1;fillColor=#f5f5f5;strokeColor=#666666;fontColor=#333333;" parent="1" vertex="1">
          <mxGeometry x="1244" y="180" width="30" height="400" as="geometry" />
        </mxCell>
        <mxCell id="oCvcuVsPTy9-PeTr9Gm9-16" style="edgeStyle=none;rounded=0;orthogonalLoop=1;jettySize=auto;html=1;exitX=1;exitY=0.75;exitDx=0;exitDy=0;entryX=0.062;entryY=0.822;entryDx=0;entryDy=0;entryPerimeter=0;strokeColor=#9673a6;fontColor=#007FFF;fillColor=#e1d5e7;" edge="1" parent="1" source="PT7qIWkluFGOAPOJjwUe-30" target="PT7qIWkluFGOAPOJjwUe-28">
          <mxGeometry relative="1" as="geometry" />
        </mxCell>
        <mxCell id="PT7qIWkluFGOAPOJjwUe-30" value="&lt;br&gt;sign_extension" style="shape=manualInput;whiteSpace=wrap;html=1;fillColor=#ffe6cc;strokeColor=#d79b00;" parent="1" vertex="1">
          <mxGeometry x="529" y="473.5" width="121" height="47.5" as="geometry" />
        </mxCell>
        <mxCell id="oCvcuVsPTy9-PeTr9Gm9-9" style="edgeStyle=none;rounded=0;orthogonalLoop=1;jettySize=auto;html=1;exitX=0.5;exitY=0;exitDx=0;exitDy=0;entryX=0.25;entryY=1;entryDx=0;entryDy=0;strokeColor=#9673a6;fontColor=#007FFF;fillColor=#e1d5e7;" edge="1" parent="1" source="PT7qIWkluFGOAPOJjwUe-31" target="oCvcuVsPTy9-PeTr9Gm9-2">
          <mxGeometry relative="1" as="geometry" />
        </mxCell>
        <mxCell id="PT7qIWkluFGOAPOJjwUe-31" value="MUX" style="shape=trapezoid;perimeter=trapezoidPerimeter;whiteSpace=wrap;html=1;fixedSize=1;rotation=90;" parent="1" vertex="1">
          <mxGeometry x="780" y="180.5" width="60" height="30" as="geometry" />
        </mxCell>
        <mxCell id="oCvcuVsPTy9-PeTr9Gm9-17" style="edgeStyle=none;rounded=0;orthogonalLoop=1;jettySize=auto;html=1;exitX=0.5;exitY=0;exitDx=0;exitDy=0;entryX=-0.02;entryY=0.927;entryDx=0;entryDy=0;entryPerimeter=0;strokeColor=#9673a6;fontColor=#007FFF;fillColor=#e1d5e7;" edge="1" parent="1" source="PT7qIWkluFGOAPOJjwUe-32" target="PT7qIWkluFGOAPOJjwUe-19">
          <mxGeometry relative="1" as="geometry" />
        </mxCell>
        <mxCell id="PT7qIWkluFGOAPOJjwUe-32" value="MUX" style="shape=trapezoid;perimeter=trapezoidPerimeter;whiteSpace=wrap;html=1;fixedSize=1;rotation=90;" parent="1" vertex="1">
          <mxGeometry x="867" y="318.5" width="60" height="30" as="geometry" />
        </mxCell>
        <mxCell id="PT7qIWkluFGOAPOJjwUe-43" value="" style="triangle;whiteSpace=wrap;html=1;rotation=90;fillColor=#f5f5f5;strokeColor=#666666;fontColor=#333333;" parent="1" vertex="1">
          <mxGeometry x="170" y="175" width="10" height="30" as="geometry" />
        </mxCell>
        <mxCell id="PT7qIWkluFGOAPOJjwUe-44" value="" style="triangle;whiteSpace=wrap;html=1;rotation=90;fillColor=#f5f5f5;strokeColor=#666666;fontColor=#333333;" parent="1" vertex="1">
          <mxGeometry x="705" y="170" width="10" height="30" as="geometry" />
        </mxCell>
        <mxCell id="PT7qIWkluFGOAPOJjwUe-45" value="" style="triangle;whiteSpace=wrap;html=1;rotation=90;fillColor=#f5f5f5;strokeColor=#666666;fontColor=#333333;" parent="1" vertex="1">
          <mxGeometry x="1255" y="170" width="10" height="30" as="geometry" />
        </mxCell>
        <mxCell id="PT7qIWkluFGOAPOJjwUe-47" value="" style="endArrow=classic;html=1;" parent="1" edge="1">
          <mxGeometry width="50" height="50" relative="1" as="geometry">
            <mxPoint x="174.5" y="155" as="sourcePoint" />
            <mxPoint x="174.5" y="185" as="targetPoint" />
          </mxGeometry>
        </mxCell>
        <mxCell id="PT7qIWkluFGOAPOJjwUe-49" value="" style="endArrow=classic;html=1;fillColor=#dae8fc;strokeColor=#6c8ebf;" parent="1" edge="1">
          <mxGeometry width="50" height="50" relative="1" as="geometry">
            <mxPoint x="710.5" y="150" as="sourcePoint" />
            <mxPoint x="710.5" y="180" as="targetPoint" />
          </mxGeometry>
        </mxCell>
        <mxCell id="PT7qIWkluFGOAPOJjwUe-50" value="" style="endArrow=classic;html=1;" parent="1" edge="1">
          <mxGeometry width="50" height="50" relative="1" as="geometry">
            <mxPoint x="1259.5" y="149" as="sourcePoint" />
            <mxPoint x="1259.5" y="179" as="targetPoint" />
          </mxGeometry>
        </mxCell>
        <mxCell id="PT7qIWkluFGOAPOJjwUe-51" value="CLK" style="text;html=1;strokeColor=none;fillColor=none;align=center;verticalAlign=middle;whiteSpace=wrap;rounded=0;" parent="1" vertex="1">
          <mxGeometry x="155" y="135" width="40" height="20" as="geometry" />
        </mxCell>
        <mxCell id="PT7qIWkluFGOAPOJjwUe-144" value="" style="edgeStyle=orthogonalEdgeStyle;rounded=0;orthogonalLoop=1;jettySize=auto;html=1;fontColor=#A680B8;" parent="1" source="PT7qIWkluFGOAPOJjwUe-52" target="PT7qIWkluFGOAPOJjwUe-44" edge="1">
          <mxGeometry relative="1" as="geometry" />
        </mxCell>
        <mxCell id="PT7qIWkluFGOAPOJjwUe-52" value="CLK" style="text;html=1;strokeColor=none;fillColor=none;align=center;verticalAlign=middle;whiteSpace=wrap;rounded=0;" parent="1" vertex="1">
          <mxGeometry x="690" y="130" width="40" height="20" as="geometry" />
        </mxCell>
        <mxCell id="PT7qIWkluFGOAPOJjwUe-53" value="CLK" style="text;html=1;strokeColor=none;fillColor=none;align=center;verticalAlign=middle;whiteSpace=wrap;rounded=0;" parent="1" vertex="1">
          <mxGeometry x="1240" y="130" width="40" height="20" as="geometry" />
        </mxCell>
        <mxCell id="oCvcuVsPTy9-PeTr9Gm9-18" style="edgeStyle=none;rounded=0;orthogonalLoop=1;jettySize=auto;html=1;exitX=0.5;exitY=0;exitDx=0;exitDy=0;entryX=0.25;entryY=1;entryDx=0;entryDy=0;strokeColor=#9673a6;fontColor=#007FFF;fillColor=#e1d5e7;" edge="1" parent="1" source="PT7qIWkluFGOAPOJjwUe-65" target="PT7qIWkluFGOAPOJjwUe-32">
          <mxGeometry relative="1" as="geometry" />
        </mxCell>
        <mxCell id="PT7qIWkluFGOAPOJjwUe-65" value="MUX" style="shape=trapezoid;perimeter=trapezoidPerimeter;whiteSpace=wrap;html=1;fixedSize=1;rotation=90;" parent="1" vertex="1">
          <mxGeometry x="780" y="303" width="60" height="30" as="geometry" />
        </mxCell>
        <mxCell id="PT7qIWkluFGOAPOJjwUe-207" style="edgeStyle=none;rounded=0;orthogonalLoop=1;jettySize=auto;html=1;exitX=0.5;exitY=0;exitDx=0;exitDy=0;entryX=0.5;entryY=1;entryDx=0;entryDy=0;strokeColor=#9673a6;fontColor=#000000;fillColor=#e1d5e7;" parent="1" source="PT7qIWkluFGOAPOJjwUe-79" target="PT7qIWkluFGOAPOJjwUe-11" edge="1">
          <mxGeometry relative="1" as="geometry">
            <Array as="points">
              <mxPoint x="1790" y="261" />
              <mxPoint x="1790" y="650" />
              <mxPoint x="499" y="650" />
            </Array>
          </mxGeometry>
        </mxCell>
        <mxCell id="PT7qIWkluFGOAPOJjwUe-275" style="edgeStyle=none;rounded=0;orthogonalLoop=1;jettySize=auto;html=1;exitX=1;exitY=1;exitDx=0;exitDy=0;strokeColor=#666666;fontColor=#005700;entryX=0.666;entryY=0.017;entryDx=0;entryDy=0;entryPerimeter=0;fillColor=#f5f5f5;" parent="1" edge="1">
          <mxGeometry relative="1" as="geometry">
            <mxPoint x="1060.9179999999997" y="-55.970000000000255" as="targetPoint" />
            <mxPoint x="1591" y="580.5" as="sourcePoint" />
            <Array as="points">
              <mxPoint x="1632" y="581" />
              <mxPoint x="1632" y="680" />
              <mxPoint x="1832" y="680" />
              <mxPoint x="1832" y="-90" />
              <mxPoint x="1061" y="-90" />
            </Array>
          </mxGeometry>
        </mxCell>
        <mxCell id="PT7qIWkluFGOAPOJjwUe-276" value="&lt;span style=&quot;color: rgb(128 , 128 , 128)&quot;&gt;wb_reg_dst&lt;/span&gt;" style="edgeLabel;html=1;align=center;verticalAlign=middle;resizable=0;points=[];fontColor=#005700;" parent="PT7qIWkluFGOAPOJjwUe-275" vertex="1" connectable="0">
          <mxGeometry x="0.8797" y="1" relative="1" as="geometry">
            <mxPoint as="offset" />
          </mxGeometry>
        </mxCell>
        <mxCell id="PT7qIWkluFGOAPOJjwUe-70" value="W&lt;br&gt;r&lt;br&gt;i&lt;br&gt;t&lt;br&gt;e&lt;br&gt;&lt;br&gt;B&lt;br&gt;a&lt;br&gt;c&lt;br&gt;k" style="rounded=0;whiteSpace=wrap;html=1;fillColor=#f5f5f5;strokeColor=#666666;fontColor=#333333;" parent="1" vertex="1">
          <mxGeometry x="1559" y="180.5" width="30" height="400" as="geometry" />
        </mxCell>
        <mxCell id="PT7qIWkluFGOAPOJjwUe-71" value="" style="triangle;whiteSpace=wrap;html=1;rotation=90;fillColor=#f5f5f5;strokeColor=#666666;fontColor=#333333;" parent="1" vertex="1">
          <mxGeometry x="1569" y="170.5" width="10" height="30" as="geometry" />
        </mxCell>
        <mxCell id="PT7qIWkluFGOAPOJjwUe-72" value="" style="endArrow=classic;html=1;" parent="1" edge="1">
          <mxGeometry width="50" height="50" relative="1" as="geometry">
            <mxPoint x="1573.5" y="149.5" as="sourcePoint" />
            <mxPoint x="1573.5" y="179.5" as="targetPoint" />
          </mxGeometry>
        </mxCell>
        <mxCell id="PT7qIWkluFGOAPOJjwUe-73" value="CLK" style="text;html=1;strokeColor=none;fillColor=none;align=center;verticalAlign=middle;whiteSpace=wrap;rounded=0;" parent="1" vertex="1">
          <mxGeometry x="1554" y="130.5" width="40" height="20" as="geometry" />
        </mxCell>
        <mxCell id="PT7qIWkluFGOAPOJjwUe-79" value="MUX" style="shape=trapezoid;perimeter=trapezoidPerimeter;whiteSpace=wrap;html=1;fixedSize=1;rotation=90;" parent="1" vertex="1">
          <mxGeometry x="1661" y="246" width="60" height="30" as="geometry" />
        </mxCell>
        <mxCell id="PT7qIWkluFGOAPOJjwUe-95" value="MemWrite" style="edgeStyle=orthogonalEdgeStyle;rounded=0;orthogonalLoop=1;jettySize=auto;html=1;fontColor=#007FFF;entryX=0.5;entryY=1;entryDx=0;entryDy=0;fillColor=#dae8fc;strokeColor=#6c8ebf;" parent="1" target="PT7qIWkluFGOAPOJjwUe-20" edge="1">
          <mxGeometry relative="1" as="geometry">
            <mxPoint x="1430" y="452.5" as="sourcePoint" />
          </mxGeometry>
        </mxCell>
        <mxCell id="oCvcuVsPTy9-PeTr9Gm9-27" style="edgeStyle=none;rounded=0;orthogonalLoop=1;jettySize=auto;html=1;exitX=0.5;exitY=0;exitDx=0;exitDy=0;entryX=0.5;entryY=0;entryDx=0;entryDy=0;strokeColor=#666666;fontColor=#007FFF;fillColor=#f5f5f5;" edge="1" parent="1" source="PT7qIWkluFGOAPOJjwUe-116" target="PT7qIWkluFGOAPOJjwUe-1">
          <mxGeometry relative="1" as="geometry">
            <Array as="points">
              <mxPoint x="400" y="80" />
              <mxPoint x="220" y="80" />
              <mxPoint x="220" y="-10" />
              <mxPoint x="120" y="-10" />
              <mxPoint x="10" y="-10" />
            </Array>
          </mxGeometry>
        </mxCell>
        <mxCell id="oCvcuVsPTy9-PeTr9Gm9-35" style="edgeStyle=none;rounded=0;orthogonalLoop=1;jettySize=auto;html=1;exitX=0.25;exitY=0;exitDx=0;exitDy=0;entryX=-0.122;entryY=0.721;entryDx=0;entryDy=0;strokeColor=#2D7600;fontColor=#007FFF;entryPerimeter=0;fillColor=#60a917;" edge="1" parent="1" source="PT7qIWkluFGOAPOJjwUe-116" target="PT7qIWkluFGOAPOJjwUe-28">
          <mxGeometry relative="1" as="geometry">
            <Array as="points">
              <mxPoint x="382" y="130" />
              <mxPoint x="250" y="130" />
              <mxPoint x="250" y="470" />
            </Array>
          </mxGeometry>
        </mxCell>
        <mxCell id="oCvcuVsPTy9-PeTr9Gm9-39" value="&lt;font&gt;jal_dst[31:0]&lt;/font&gt;" style="edgeLabel;html=1;align=center;verticalAlign=middle;resizable=0;points=[];fontColor=#009900;" vertex="1" connectable="0" parent="oCvcuVsPTy9-PeTr9Gm9-35">
          <mxGeometry x="-0.8384" y="1" relative="1" as="geometry">
            <mxPoint as="offset" />
          </mxGeometry>
        </mxCell>
        <mxCell id="PT7qIWkluFGOAPOJjwUe-116" value="&lt;font color=&quot;#000000&quot;&gt;Br_Unit&lt;/font&gt;" style="rounded=0;whiteSpace=wrap;html=1;fillColor=#ffe6cc;strokeColor=#d79b00;" parent="1" vertex="1">
          <mxGeometry x="364" y="160" width="70" height="60" as="geometry" />
        </mxCell>
        <mxCell id="PT7qIWkluFGOAPOJjwUe-157" style="edgeStyle=orthogonalEdgeStyle;rounded=0;orthogonalLoop=1;jettySize=auto;html=1;exitX=0.5;exitY=0;exitDx=0;exitDy=0;entryX=0.75;entryY=1;entryDx=0;entryDy=0;fontColor=#A680B8;" parent="1" source="PT7qIWkluFGOAPOJjwUe-117" target="PT7qIWkluFGOAPOJjwUe-13" edge="1">
          <mxGeometry relative="1" as="geometry">
            <mxPoint x="573" y="95" as="sourcePoint" />
          </mxGeometry>
        </mxCell>
        <mxCell id="PT7qIWkluFGOAPOJjwUe-117" value="&lt;font color=&quot;#000000&quot;&gt;Branch&lt;br&gt;Jump&lt;br&gt;&lt;/font&gt;" style="rounded=0;whiteSpace=wrap;html=1;fillColor=#ffe6cc;strokeColor=#d79b00;" parent="1" vertex="1">
          <mxGeometry x="544" y="155" width="70" height="60" as="geometry" />
        </mxCell>
        <mxCell id="PT7qIWkluFGOAPOJjwUe-129" value="CB" style="edgeStyle=orthogonalEdgeStyle;rounded=0;orthogonalLoop=1;jettySize=auto;html=1;entryX=1;entryY=0.25;entryDx=0;entryDy=0;fontColor=#007FFF;strokeColor=#7EA6E0;" parent="1" target="PT7qIWkluFGOAPOJjwUe-116" edge="1">
          <mxGeometry relative="1" as="geometry">
            <mxPoint x="479" y="175" as="sourcePoint" />
          </mxGeometry>
        </mxCell>
        <mxCell id="PT7qIWkluFGOAPOJjwUe-134" value="&lt;font color=&quot;#000000&quot;&gt;opcode&lt;/font&gt;" style="text;html=1;strokeColor=none;fillColor=none;align=center;verticalAlign=middle;whiteSpace=wrap;rounded=0;fontColor=#007FFF;" parent="1" vertex="1">
          <mxGeometry x="289" y="-32.5" width="40" height="20" as="geometry" />
        </mxCell>
        <mxCell id="PT7qIWkluFGOAPOJjwUe-135" value="function" style="text;html=1;strokeColor=none;fillColor=none;align=center;verticalAlign=middle;whiteSpace=wrap;rounded=0;" parent="1" vertex="1">
          <mxGeometry x="290" y="12.5" width="40" height="20" as="geometry" />
        </mxCell>
        <mxCell id="PT7qIWkluFGOAPOJjwUe-136" value="imm26[25...0]" style="text;html=1;strokeColor=none;fillColor=none;align=center;verticalAlign=middle;whiteSpace=wrap;rounded=0;fontColor=#A680B8;" parent="1" vertex="1">
          <mxGeometry x="289" y="155" width="40" height="20" as="geometry" />
        </mxCell>
        <mxCell id="PT7qIWkluFGOAPOJjwUe-137" value="imm16[[15...0]" style="text;html=1;strokeColor=none;fillColor=none;align=center;verticalAlign=middle;whiteSpace=wrap;rounded=0;fontColor=#A680B8;" parent="1" vertex="1">
          <mxGeometry x="290" y="185" width="40" height="20" as="geometry" />
        </mxCell>
        <mxCell id="PT7qIWkluFGOAPOJjwUe-138" value="imm16[[15...0]" style="text;html=1;strokeColor=none;fillColor=none;align=center;verticalAlign=middle;whiteSpace=wrap;rounded=0;fontColor=#A680B8;" parent="1" vertex="1">
          <mxGeometry x="290" y="487.5" width="40" height="20" as="geometry" />
        </mxCell>
        <mxCell id="PT7qIWkluFGOAPOJjwUe-228" style="edgeStyle=none;rounded=0;orthogonalLoop=1;jettySize=auto;html=1;exitX=0.5;exitY=0;exitDx=0;exitDy=0;entryX=0;entryY=1;entryDx=0;entryDy=0;strokeColor=#666666;fontColor=#000000;fillColor=#f5f5f5;" parent="1" source="PT7qIWkluFGOAPOJjwUe-142" target="PT7qIWkluFGOAPOJjwUe-29" edge="1">
          <mxGeometry relative="1" as="geometry">
            <Array as="points">
              <mxPoint x="1090" y="581" />
            </Array>
          </mxGeometry>
        </mxCell>
        <mxCell id="PT7qIWkluFGOAPOJjwUe-142" value="MUX" style="shape=trapezoid;perimeter=trapezoidPerimeter;whiteSpace=wrap;html=1;fixedSize=1;rotation=90;" parent="1" vertex="1">
          <mxGeometry x="880" y="566" width="60" height="30" as="geometry" />
        </mxCell>
        <mxCell id="PT7qIWkluFGOAPOJjwUe-151" value="" style="endArrow=classic;html=1;strokeColor=#666666;fontColor=#A680B8;entryX=0.5;entryY=1;entryDx=0;entryDy=0;fillColor=#f5f5f5;exitX=1;exitY=1;exitDx=0;exitDy=0;" parent="1" source="PT7qIWkluFGOAPOJjwUe-28" target="PT7qIWkluFGOAPOJjwUe-142" edge="1">
          <mxGeometry width="50" height="50" relative="1" as="geometry">
            <mxPoint x="757" y="510" as="sourcePoint" />
            <mxPoint x="820" y="470" as="targetPoint" />
            <Array as="points">
              <mxPoint x="810" y="580" />
            </Array>
          </mxGeometry>
        </mxCell>
        <mxCell id="PT7qIWkluFGOAPOJjwUe-154" value="" style="endArrow=classic;html=1;strokeColor=#666666;fontColor=#A680B8;fillColor=#f5f5f5;exitX=1;exitY=1;exitDx=0;exitDy=0;entryX=0;entryY=1;entryDx=0;entryDy=0;" parent="1" source="PT7qIWkluFGOAPOJjwUe-29" target="PT7qIWkluFGOAPOJjwUe-70" edge="1">
          <mxGeometry width="50" height="50" relative="1" as="geometry">
            <mxPoint x="1300" y="510" as="sourcePoint" />
            <mxPoint x="1715" y="580" as="targetPoint" />
          </mxGeometry>
        </mxCell>
        <mxCell id="PT7qIWkluFGOAPOJjwUe-156" value="" style="endArrow=classic;html=1;strokeColor=#666666;fontColor=#A680B8;entryX=0.098;entryY=1.009;entryDx=0;entryDy=0;entryPerimeter=0;fillColor=#f5f5f5;exitX=0.75;exitY=1;exitDx=0;exitDy=0;" parent="1" source="PT7qIWkluFGOAPOJjwUe-70" target="PT7qIWkluFGOAPOJjwUe-4" edge="1">
          <mxGeometry width="50" height="50" relative="1" as="geometry">
            <mxPoint x="1830" y="540" as="sourcePoint" />
            <mxPoint x="418.43132467830884" y="600" as="targetPoint" />
            <Array as="points">
              <mxPoint x="1630" y="580" />
              <mxPoint x="1630" y="680" />
              <mxPoint x="377" y="680" />
              <mxPoint x="377" y="650" />
            </Array>
          </mxGeometry>
        </mxCell>
        <mxCell id="PT7qIWkluFGOAPOJjwUe-158" value="&lt;font color=&quot;#ff3333&quot;&gt;Zero&lt;/font&gt;" style="text;html=1;strokeColor=none;fillColor=none;align=center;verticalAlign=middle;whiteSpace=wrap;rounded=0;fontColor=#A680B8;" parent="1" vertex="1">
          <mxGeometry x="453" y="29.5" width="40" height="20" as="geometry" />
        </mxCell>
        <mxCell id="PT7qIWkluFGOAPOJjwUe-231" style="edgeStyle=none;rounded=0;orthogonalLoop=1;jettySize=auto;html=1;exitX=0.5;exitY=0;exitDx=0;exitDy=0;entryX=0.75;entryY=1;entryDx=0;entryDy=0;strokeColor=#2D7600;fontColor=#000000;fillColor=#60a917;" parent="1" source="PT7qIWkluFGOAPOJjwUe-161" target="PT7qIWkluFGOAPOJjwUe-142" edge="1">
          <mxGeometry relative="1" as="geometry">
            <Array as="points">
              <mxPoint x="860" y="600" />
            </Array>
          </mxGeometry>
        </mxCell>
        <mxCell id="PT7qIWkluFGOAPOJjwUe-161" value="reg_31" style="text;html=1;strokeColor=#2D7600;fillColor=#60a917;align=center;verticalAlign=middle;whiteSpace=wrap;rounded=0;fontColor=#ffffff;" parent="1" vertex="1">
          <mxGeometry x="827" y="620" width="40" height="20" as="geometry" />
        </mxCell>
        <mxCell id="PT7qIWkluFGOAPOJjwUe-166" value="" style="endArrow=classic;html=1;strokeColor=#9673a6;fontColor=#A680B8;entryX=0.75;entryY=1;entryDx=0;entryDy=0;fillColor=#e1d5e7;exitX=1.093;exitY=0.535;exitDx=0;exitDy=0;exitPerimeter=0;" parent="1" source="PT7qIWkluFGOAPOJjwUe-28" target="PT7qIWkluFGOAPOJjwUe-65" edge="1">
          <mxGeometry width="50" height="50" relative="1" as="geometry">
            <mxPoint x="750" y="386" as="sourcePoint" />
            <mxPoint x="960" y="261" as="targetPoint" />
            <Array as="points">
              <mxPoint x="770" y="394" />
              <mxPoint x="770" y="333" />
            </Array>
          </mxGeometry>
        </mxCell>
        <mxCell id="PT7qIWkluFGOAPOJjwUe-167" value="" style="endArrow=classic;html=1;strokeColor=#9673a6;fontColor=#A680B8;entryX=0.25;entryY=1;entryDx=0;entryDy=0;fillColor=#e1d5e7;exitX=0.5;exitY=0;exitDx=0;exitDy=0;" parent="1" source="PT7qIWkluFGOAPOJjwUe-79" target="PT7qIWkluFGOAPOJjwUe-31" edge="1">
          <mxGeometry width="50" height="50" relative="1" as="geometry">
            <mxPoint x="1600" y="420" as="sourcePoint" />
            <mxPoint x="780" y="130" as="targetPoint" />
            <Array as="points">
              <mxPoint x="1790" y="261" />
              <mxPoint x="1790" y="90" />
              <mxPoint x="760" y="90" />
              <mxPoint x="760" y="181" />
            </Array>
          </mxGeometry>
        </mxCell>
        <mxCell id="PT7qIWkluFGOAPOJjwUe-168" value="" style="endArrow=classic;html=1;strokeColor=#9673a6;fontColor=#A680B8;fillColor=#e1d5e7;entryX=0.25;entryY=1;entryDx=0;entryDy=0;exitX=0.5;exitY=0;exitDx=0;exitDy=0;" parent="1" source="PT7qIWkluFGOAPOJjwUe-79" target="PT7qIWkluFGOAPOJjwUe-65" edge="1">
          <mxGeometry width="50" height="50" relative="1" as="geometry">
            <mxPoint x="1700" y="315" as="sourcePoint" />
            <mxPoint x="780" y="380" as="targetPoint" />
            <Array as="points">
              <mxPoint x="1790" y="260" />
              <mxPoint x="1790" y="90" />
              <mxPoint x="760" y="90" />
              <mxPoint x="760" y="303" />
            </Array>
          </mxGeometry>
        </mxCell>
        <mxCell id="PT7qIWkluFGOAPOJjwUe-171" value="Num2" style="endArrow=classic;html=1;strokeColor=#6c8ebf;fontColor=#007FFF;entryX=0;entryY=0.25;entryDx=0;entryDy=0;fillColor=#dae8fc;" parent="1" target="PT7qIWkluFGOAPOJjwUe-32" edge="1">
          <mxGeometry width="50" height="50" relative="1" as="geometry">
            <mxPoint x="952" y="287.5" as="sourcePoint" />
            <mxPoint x="1032" y="82.5" as="targetPoint" />
          </mxGeometry>
        </mxCell>
        <mxCell id="PT7qIWkluFGOAPOJjwUe-172" value="RegWriteData" style="endArrow=classic;html=1;strokeColor=#6c8ebf;fontColor=#007FFF;entryX=0;entryY=0.5;entryDx=0;entryDy=0;fillColor=#dae8fc;" parent="1" target="PT7qIWkluFGOAPOJjwUe-79" edge="1">
          <mxGeometry width="50" height="50" relative="1" as="geometry">
            <mxPoint x="1711" y="201" as="sourcePoint" />
            <mxPoint x="1521" y="121" as="targetPoint" />
          </mxGeometry>
        </mxCell>
        <mxCell id="PT7qIWkluFGOAPOJjwUe-173" value="rs[25-21]" style="text;html=1;strokeColor=none;fillColor=none;align=center;verticalAlign=middle;whiteSpace=wrap;rounded=0;fontColor=#808080;" parent="1" vertex="1">
          <mxGeometry x="279" y="285" width="60" height="20" as="geometry" />
        </mxCell>
        <mxCell id="PT7qIWkluFGOAPOJjwUe-174" value="rt[20-16]" style="text;html=1;strokeColor=none;fillColor=none;align=center;verticalAlign=middle;whiteSpace=wrap;rounded=0;fontColor=#808080;" parent="1" vertex="1">
          <mxGeometry x="280" y="368" width="60" height="20" as="geometry" />
        </mxCell>
        <mxCell id="PT7qIWkluFGOAPOJjwUe-176" value="rt[20-16]" style="text;html=1;strokeColor=none;fillColor=none;align=center;verticalAlign=middle;whiteSpace=wrap;rounded=0;fontColor=#808080;" parent="1" vertex="1">
          <mxGeometry x="279" y="531.5" width="60" height="20" as="geometry" />
        </mxCell>
        <mxCell id="PT7qIWkluFGOAPOJjwUe-178" value="rd[15-11]" style="text;html=1;strokeColor=none;fillColor=none;align=center;verticalAlign=middle;whiteSpace=wrap;rounded=0;fontColor=#808080;" parent="1" vertex="1">
          <mxGeometry x="280" y="559.5" width="60" height="20" as="geometry" />
        </mxCell>
        <mxCell id="PT7qIWkluFGOAPOJjwUe-179" value="pc[31...0]" style="text;html=1;align=center;verticalAlign=middle;resizable=0;points=[];autosize=1;" parent="1" vertex="1">
          <mxGeometry x="20" y="90" width="60" height="20" as="geometry" />
        </mxCell>
        <mxCell id="PT7qIWkluFGOAPOJjwUe-189" value="rs[25-21]" style="text;html=1;strokeColor=none;fillColor=none;align=center;verticalAlign=middle;whiteSpace=wrap;rounded=0;fontColor=#808080;" parent="1" vertex="1">
          <mxGeometry x="279" y="509.5" width="60" height="20" as="geometry" />
        </mxCell>
        <mxCell id="PT7qIWkluFGOAPOJjwUe-193" value="" style="endArrow=classic;html=1;strokeColor=#666666;fontColor=#005700;entryX=0.5;entryY=1;entryDx=0;entryDy=0;fillColor=#f5f5f5;" parent="1" target="PT7qIWkluFGOAPOJjwUe-18" edge="1">
          <mxGeometry width="50" height="50" relative="1" as="geometry">
            <mxPoint x="729" y="530" as="sourcePoint" />
            <mxPoint x="1130" y="20" as="targetPoint" />
            <Array as="points">
              <mxPoint x="1180" y="530" />
              <mxPoint x="1180" y="70" />
              <mxPoint x="1039" y="70" />
            </Array>
          </mxGeometry>
        </mxCell>
        <mxCell id="PT7qIWkluFGOAPOJjwUe-200" value="rt[20...15]" style="text;html=1;strokeColor=none;fillColor=none;align=center;verticalAlign=middle;whiteSpace=wrap;rounded=0;fontColor=#808080;" parent="1" vertex="1">
          <mxGeometry x="1113" y="29.5" width="40" height="20" as="geometry" />
        </mxCell>
        <mxCell id="PT7qIWkluFGOAPOJjwUe-201" value="rs[25...21]" style="text;html=1;strokeColor=none;fillColor=none;align=center;verticalAlign=middle;whiteSpace=wrap;rounded=0;fontColor=#808080;" parent="1" vertex="1">
          <mxGeometry x="1060" y="49.5" width="40" height="20" as="geometry" />
        </mxCell>
        <mxCell id="PT7qIWkluFGOAPOJjwUe-221" value="" style="endArrow=classic;html=1;strokeColor=#9673a6;fontColor=#000000;exitX=1.019;exitY=0.33;exitDx=0;exitDy=0;exitPerimeter=0;entryX=0.75;entryY=1;entryDx=0;entryDy=0;fillColor=#e1d5e7;" parent="1" source="PT7qIWkluFGOAPOJjwUe-28" target="PT7qIWkluFGOAPOJjwUe-31" edge="1">
          <mxGeometry width="50" height="50" relative="1" as="geometry">
            <mxPoint x="900" y="410" as="sourcePoint" />
            <mxPoint x="950" y="360" as="targetPoint" />
            <Array as="points">
              <mxPoint x="740" y="312" />
              <mxPoint x="740" y="211" />
            </Array>
          </mxGeometry>
        </mxCell>
        <mxCell id="PT7qIWkluFGOAPOJjwUe-229" value="" style="endArrow=classic;html=1;strokeColor=#666666;fontColor=#000000;entryX=0.25;entryY=1;entryDx=0;entryDy=0;fillColor=#f5f5f5;" parent="1" target="PT7qIWkluFGOAPOJjwUe-142" edge="1">
          <mxGeometry width="50" height="50" relative="1" as="geometry">
            <mxPoint x="726" y="550" as="sourcePoint" />
            <mxPoint x="800" y="380" as="targetPoint" />
            <Array as="points">
              <mxPoint x="820" y="550" />
              <mxPoint x="820" y="566" />
            </Array>
          </mxGeometry>
        </mxCell>
        <mxCell id="PT7qIWkluFGOAPOJjwUe-230" value="" style="endArrow=classic;html=1;strokeColor=#666666;fontColor=#000000;entryX=0.75;entryY=1;entryDx=0;entryDy=0;fillColor=#f5f5f5;exitX=1.019;exitY=0.924;exitDx=0;exitDy=0;exitPerimeter=0;" parent="1" source="PT7qIWkluFGOAPOJjwUe-28" target="PT7qIWkluFGOAPOJjwUe-18" edge="1">
          <mxGeometry width="50" height="50" relative="1" as="geometry">
            <mxPoint x="726" y="530" as="sourcePoint" />
            <mxPoint x="1210" y="30" as="targetPoint" />
            <Array as="points">
              <mxPoint x="820" y="550" />
              <mxPoint x="1010" y="550" />
              <mxPoint x="1200" y="550" />
              <mxPoint x="1200" y="510" />
              <mxPoint x="1200" y="50" />
              <mxPoint x="1069" y="50" />
            </Array>
          </mxGeometry>
        </mxCell>
        <mxCell id="PT7qIWkluFGOAPOJjwUe-233" value="" style="endArrow=classic;html=1;strokeColor=#9673a6;fontColor=#000000;exitX=1.205;exitY=0.8;exitDx=0;exitDy=0;exitPerimeter=0;entryX=0.75;entryY=1;entryDx=0;entryDy=0;fillColor=#e1d5e7;" parent="1" source="PT7qIWkluFGOAPOJjwUe-28" target="PT7qIWkluFGOAPOJjwUe-32" edge="1">
          <mxGeometry width="50" height="50" relative="1" as="geometry">
            <mxPoint x="750" y="260" as="sourcePoint" />
            <mxPoint x="800" y="210" as="targetPoint" />
            <Array as="points">
              <mxPoint x="840" y="500" />
              <mxPoint x="840" y="349" />
            </Array>
          </mxGeometry>
        </mxCell>
        <mxCell id="PT7qIWkluFGOAPOJjwUe-243" value="ex_imm" style="edgeLabel;html=1;align=center;verticalAlign=middle;resizable=0;points=[];fontColor=#A680B8;" parent="PT7qIWkluFGOAPOJjwUe-233" vertex="1" connectable="0">
          <mxGeometry x="-0.8211" relative="1" as="geometry">
            <mxPoint x="1" as="offset" />
          </mxGeometry>
        </mxCell>
        <mxCell id="PT7qIWkluFGOAPOJjwUe-241" value="num1" style="text;html=1;strokeColor=none;fillColor=none;align=center;verticalAlign=middle;whiteSpace=wrap;rounded=0;" parent="1" vertex="1">
          <mxGeometry x="977" y="206" width="40" height="20" as="geometry" />
        </mxCell>
        <mxCell id="PT7qIWkluFGOAPOJjwUe-242" value="num2" style="text;html=1;strokeColor=none;fillColor=none;align=center;verticalAlign=middle;whiteSpace=wrap;rounded=0;fontColor=#000000;" parent="1" vertex="1">
          <mxGeometry x="977" y="310" width="40" height="20" as="geometry" />
        </mxCell>
        <mxCell id="PT7qIWkluFGOAPOJjwUe-257" value="" style="endArrow=classic;html=1;strokeColor=#9673a6;fontColor=#005700;exitX=1.049;exitY=0.539;exitDx=0;exitDy=0;exitPerimeter=0;fillColor=#e1d5e7;entryX=0.051;entryY=0.543;entryDx=0;entryDy=0;entryPerimeter=0;" parent="1" source="PT7qIWkluFGOAPOJjwUe-28" target="PT7qIWkluFGOAPOJjwUe-29" edge="1">
          <mxGeometry width="50" height="50" relative="1" as="geometry">
            <mxPoint x="750" y="410" as="sourcePoint" />
            <mxPoint x="1250" y="397" as="targetPoint" />
          </mxGeometry>
        </mxCell>
        <mxCell id="PT7qIWkluFGOAPOJjwUe-265" value="" style="endArrow=classic;html=1;strokeColor=#9673a6;fontColor=#005700;entryX=0.25;entryY=1;entryDx=0;entryDy=0;fillColor=#e1d5e7;" parent="1" target="PT7qIWkluFGOAPOJjwUe-79" edge="1">
          <mxGeometry width="50" height="50" relative="1" as="geometry">
            <mxPoint x="1590" y="246" as="sourcePoint" />
            <mxPoint x="1360" y="360" as="targetPoint" />
          </mxGeometry>
        </mxCell>
        <mxCell id="PT7qIWkluFGOAPOJjwUe-267" value="" style="endArrow=classic;html=1;strokeColor=#9673a6;fontColor=#005700;exitX=1.043;exitY=0.316;exitDx=0;exitDy=0;exitPerimeter=0;entryX=0.75;entryY=1;entryDx=0;entryDy=0;fillColor=#e1d5e7;" parent="1" source="PT7qIWkluFGOAPOJjwUe-70" target="PT7qIWkluFGOAPOJjwUe-79" edge="1">
          <mxGeometry width="50" height="50" relative="1" as="geometry">
            <mxPoint x="1310" y="410" as="sourcePoint" />
            <mxPoint x="1360" y="360" as="targetPoint" />
            <Array as="points">
              <mxPoint x="1630" y="307" />
              <mxPoint x="1630" y="276" />
            </Array>
          </mxGeometry>
        </mxCell>
        <mxCell id="PT7qIWkluFGOAPOJjwUe-269" value="" style="endArrow=classic;html=1;strokeColor=#9673a6;fontColor=#005700;entryX=1;entryY=0.5;entryDx=0;entryDy=0;fillColor=#e1d5e7;exitX=1.011;exitY=0.323;exitDx=0;exitDy=0;exitPerimeter=0;" parent="1" source="PT7qIWkluFGOAPOJjwUe-70" target="PT7qIWkluFGOAPOJjwUe-18" edge="1">
          <mxGeometry width="50" height="50" relative="1" as="geometry">
            <mxPoint x="1620" y="340" as="sourcePoint" />
            <mxPoint x="1630" y="140" as="targetPoint" />
            <Array as="points">
              <mxPoint x="1630" y="302" />
              <mxPoint x="1630" y="-13" />
            </Array>
          </mxGeometry>
        </mxCell>
        <mxCell id="PT7qIWkluFGOAPOJjwUe-270" value="&lt;font color=&quot;#a680b8&quot;&gt;wb_reg_data&lt;/font&gt;" style="edgeLabel;html=1;align=center;verticalAlign=middle;resizable=0;points=[];fontColor=#005700;" parent="PT7qIWkluFGOAPOJjwUe-269" vertex="1" connectable="0">
          <mxGeometry x="0.9048" y="-3" relative="1" as="geometry">
            <mxPoint x="17.9" y="3.04" as="offset" />
          </mxGeometry>
        </mxCell>
        <mxCell id="oCvcuVsPTy9-PeTr9Gm9-29" style="edgeStyle=none;rounded=0;orthogonalLoop=1;jettySize=auto;html=1;exitX=1;exitY=0.5;exitDx=0;exitDy=0;entryX=0.5;entryY=1;entryDx=0;entryDy=0;strokeColor=#d6b656;fontColor=#007FFF;fillColor=#fff2cc;" edge="1" parent="1" source="PT7qIWkluFGOAPOJjwUe-278" target="PT7qIWkluFGOAPOJjwUe-29">
          <mxGeometry relative="1" as="geometry">
            <Array as="points">
              <mxPoint x="1259" y="760" />
            </Array>
          </mxGeometry>
        </mxCell>
        <mxCell id="oCvcuVsPTy9-PeTr9Gm9-30" style="edgeStyle=none;rounded=0;orthogonalLoop=1;jettySize=auto;html=1;exitX=0;exitY=0.5;exitDx=0;exitDy=0;entryX=0.5;entryY=1;entryDx=0;entryDy=0;strokeColor=#d6b656;fontColor=#007FFF;fillColor=#fff2cc;" edge="1" parent="1" source="PT7qIWkluFGOAPOJjwUe-278" target="PT7qIWkluFGOAPOJjwUe-28">
          <mxGeometry relative="1" as="geometry">
            <Array as="points">
              <mxPoint x="710" y="760" />
            </Array>
          </mxGeometry>
        </mxCell>
        <mxCell id="oCvcuVsPTy9-PeTr9Gm9-31" style="edgeStyle=none;rounded=0;orthogonalLoop=1;jettySize=auto;html=1;exitX=0;exitY=0.5;exitDx=0;exitDy=0;entryX=0.5;entryY=1;entryDx=0;entryDy=0;strokeColor=#d6b656;fontColor=#007FFF;fillColor=#fff2cc;" edge="1" parent="1" source="PT7qIWkluFGOAPOJjwUe-278" target="PT7qIWkluFGOAPOJjwUe-27">
          <mxGeometry relative="1" as="geometry">
            <Array as="points">
              <mxPoint x="175" y="760" />
            </Array>
          </mxGeometry>
        </mxCell>
        <mxCell id="oCvcuVsPTy9-PeTr9Gm9-33" style="edgeStyle=none;rounded=0;orthogonalLoop=1;jettySize=auto;html=1;exitX=0;exitY=0.5;exitDx=0;exitDy=0;entryX=0;entryY=0.5;entryDx=0;entryDy=0;strokeColor=#d6b656;fontColor=#007FFF;fillColor=#fff2cc;" edge="1" parent="1" source="PT7qIWkluFGOAPOJjwUe-278" target="PT7qIWkluFGOAPOJjwUe-1">
          <mxGeometry relative="1" as="geometry">
            <Array as="points">
              <mxPoint x="-80" y="760" />
              <mxPoint x="-80" y="53" />
            </Array>
          </mxGeometry>
        </mxCell>
        <mxCell id="PT7qIWkluFGOAPOJjwUe-278" value="&lt;font style=&quot;font-size: 13px&quot; color=&quot;#000000&quot;&gt;&lt;b&gt;Stall Unit&lt;/b&gt;&lt;/font&gt;" style="rounded=1;whiteSpace=wrap;html=1;strokeColor=#d6b656;fillColor=#fff2cc;" parent="1" vertex="1">
          <mxGeometry x="980" y="730" width="120" height="60" as="geometry" />
        </mxCell>
        <mxCell id="oCvcuVsPTy9-PeTr9Gm9-1" value="RegWriteAddr" style="endArrow=classic;html=1;strokeColor=#6c8ebf;entryX=0;entryY=0.25;entryDx=0;entryDy=0;fillColor=#dae8fc;fontColor=#007FFF;" edge="1" parent="1">
          <mxGeometry width="50" height="50" relative="1" as="geometry">
            <mxPoint x="930" y="539" as="sourcePoint" />
            <mxPoint x="914.2857142857142" y="562.8571428571427" as="targetPoint" />
          </mxGeometry>
        </mxCell>
        <mxCell id="oCvcuVsPTy9-PeTr9Gm9-12" style="edgeStyle=none;rounded=0;orthogonalLoop=1;jettySize=auto;html=1;exitX=0.5;exitY=0;exitDx=0;exitDy=0;entryX=0;entryY=0.25;entryDx=0;entryDy=0;strokeColor=#9673a6;fontColor=#007FFF;fillColor=#e1d5e7;" edge="1" parent="1" source="oCvcuVsPTy9-PeTr9Gm9-2" target="PT7qIWkluFGOAPOJjwUe-241">
          <mxGeometry relative="1" as="geometry" />
        </mxCell>
        <mxCell id="oCvcuVsPTy9-PeTr9Gm9-2" value="MUX" style="shape=trapezoid;perimeter=trapezoidPerimeter;whiteSpace=wrap;html=1;fixedSize=1;rotation=90;" vertex="1" parent="1">
          <mxGeometry x="867" y="196" width="60" height="30" as="geometry" />
        </mxCell>
        <mxCell id="oCvcuVsPTy9-PeTr9Gm9-20" value="" style="endArrow=classic;html=1;strokeColor=#6c8ebf;fontColor=#007FFF;entryX=1;entryY=1;entryDx=0;entryDy=0;fillColor=#dae8fc;" edge="1" parent="1" target="PT7qIWkluFGOAPOJjwUe-4">
          <mxGeometry width="50" height="50" relative="1" as="geometry">
            <mxPoint x="600" y="420" as="sourcePoint" />
            <mxPoint x="790" y="270" as="targetPoint" />
          </mxGeometry>
        </mxCell>
        <mxCell id="oCvcuVsPTy9-PeTr9Gm9-21" value="RegWrite" style="edgeLabel;html=1;align=center;verticalAlign=middle;resizable=0;points=[];fontColor=#007FFF;" vertex="1" connectable="0" parent="oCvcuVsPTy9-PeTr9Gm9-20">
          <mxGeometry x="-0.3726" y="1" relative="1" as="geometry">
            <mxPoint as="offset" />
          </mxGeometry>
        </mxCell>
        <mxCell id="oCvcuVsPTy9-PeTr9Gm9-23" value="" style="endArrow=classic;html=1;strokeColor=#9673a6;fontColor=#007FFF;entryX=0.75;entryY=1;entryDx=0;entryDy=0;fillColor=#e1d5e7;exitX=1.014;exitY=0.8;exitDx=0;exitDy=0;exitPerimeter=0;" edge="1" parent="1" source="PT7qIWkluFGOAPOJjwUe-28" target="oCvcuVsPTy9-PeTr9Gm9-2">
          <mxGeometry width="50" height="50" relative="1" as="geometry">
            <mxPoint x="730" y="500" as="sourcePoint" />
            <mxPoint x="840" y="500" as="targetPoint" />
            <Array as="points">
              <mxPoint x="840" y="500" />
              <mxPoint x="840" y="226" />
            </Array>
          </mxGeometry>
        </mxCell>
        <mxCell id="oCvcuVsPTy9-PeTr9Gm9-24" value="Num1" style="endArrow=classic;html=1;fontColor=#007FFF;entryX=0;entryY=0.25;entryDx=0;entryDy=0;strokeColor=#6c8ebf;fillColor=#dae8fc;" edge="1" parent="1" target="oCvcuVsPTy9-PeTr9Gm9-2">
          <mxGeometry width="50" height="50" relative="1" as="geometry">
            <mxPoint x="940" y="160" as="sourcePoint" />
            <mxPoint x="790" y="120" as="targetPoint" />
          </mxGeometry>
        </mxCell>
        <mxCell id="oCvcuVsPTy9-PeTr9Gm9-25" value="" style="endArrow=classic;html=1;strokeColor=#007FFF;fontColor=#007FFF;entryX=0.5;entryY=0;entryDx=0;entryDy=0;" edge="1" parent="1" target="PT7qIWkluFGOAPOJjwUe-19">
          <mxGeometry width="50" height="50" relative="1" as="geometry">
            <mxPoint x="1052" y="150" as="sourcePoint" />
            <mxPoint x="790" y="120" as="targetPoint" />
          </mxGeometry>
        </mxCell>
        <mxCell id="oCvcuVsPTy9-PeTr9Gm9-28" value="pc[31...0]" style="text;html=1;align=center;verticalAlign=middle;resizable=0;points=[];autosize=1;" vertex="1" parent="1">
          <mxGeometry x="30" y="-29" width="60" height="20" as="geometry" />
        </mxCell>
        <mxCell id="oCvcuVsPTy9-PeTr9Gm9-36" value="" style="endArrow=classic;html=1;strokeColor=#2D7600;fontColor=#007FFF;exitX=0.989;exitY=0.721;exitDx=0;exitDy=0;exitPerimeter=0;entryX=-0.015;entryY=0.718;entryDx=0;entryDy=0;entryPerimeter=0;fillColor=#60a917;" edge="1" parent="1" target="PT7qIWkluFGOAPOJjwUe-29">
          <mxGeometry width="50" height="50" relative="1" as="geometry">
            <mxPoint x="724.6700000000001" y="466.4000000000001" as="sourcePoint" />
            <mxPoint x="1244" y="478" as="targetPoint" />
          </mxGeometry>
        </mxCell>
        <mxCell id="oCvcuVsPTy9-PeTr9Gm9-37" value="" style="endArrow=classic;html=1;strokeColor=#2D7600;fontColor=#007FFF;exitX=0.985;exitY=0.721;exitDx=0;exitDy=0;exitPerimeter=0;entryX=-0.033;entryY=0.72;entryDx=0;entryDy=0;entryPerimeter=0;fillColor=#60a917;" edge="1" parent="1" source="PT7qIWkluFGOAPOJjwUe-29" target="PT7qIWkluFGOAPOJjwUe-70">
          <mxGeometry width="50" height="50" relative="1" as="geometry">
            <mxPoint x="1010" y="300" as="sourcePoint" />
            <mxPoint x="1060" y="250" as="targetPoint" />
          </mxGeometry>
        </mxCell>
        <mxCell id="oCvcuVsPTy9-PeTr9Gm9-38" value="" style="endArrow=classic;html=1;strokeColor=#2D7600;fontColor=#007FFF;exitX=1.189;exitY=0.717;exitDx=0;exitDy=0;exitPerimeter=0;entryX=1;entryY=1;entryDx=0;entryDy=0;fillColor=#60a917;" edge="1" parent="1" source="PT7qIWkluFGOAPOJjwUe-70" target="PT7qIWkluFGOAPOJjwUe-79">
          <mxGeometry width="50" height="50" relative="1" as="geometry">
            <mxPoint x="1130" y="470" as="sourcePoint" />
            <mxPoint x="1180" y="420" as="targetPoint" />
            <Array as="points">
              <mxPoint x="1650" y="467" />
              <mxPoint x="1650" y="291" />
            </Array>
          </mxGeometry>
        </mxCell>
      </root>
    </mxGraphModel>
  </diagram>
</mxfile>
